<svg viewBox="0 -3.4 30.5825 30.5825" fill="none" xmlns="http://www.w3.org/2000/svg">
  <path d="M0 7.68333L4.61855 6.77621L5.31772 11.1585L4.87704 11.2336C2.57555 11.6264 0.397077 10.0406 0 7.68333Z" fill="#1971D8"/>
  <path d="M20.6229 11.7287C20.6649 10.5053 19.9891 9.81062 16.9449 9.70681V5.07856C18.2342 5.13286 19.891 5.3293 21.6039 5.58323L21.8717 3.90473C22.2688 1.41652 24.5267 -0.295513 26.9637 0.044659L25.964 6.31148C28.5691 6.7874 30.5825 7.21861 30.5825 7.21861C30.1854 9.57585 28.007 11.1617 25.707 10.7688L25.2664 10.6938L24.508 15.4402L20.1324 14.5043C20.2087 14.0396 20.57 12.4841 20.6245 11.7287H20.6229Z" fill="#4AC7EB"/>
  <path d="M10.2886 3.90315L10.5658 5.63914C12.2865 5.37722 13.976 5.16641 15.3183 5.09135V9.70522C10.5736 9.87451 11.5904 11.6983 12.0311 14.5123C12.4422 17.1411 13.8436 19.3338 16.0813 19.3338C17.8393 19.3338 19.0679 17.9779 19.7235 16.1238L24.2611 17.0932C24.2424 17.1778 24.2237 17.2641 24.2035 17.3471L24.1178 17.6569C23.0807 21.2024 19.8761 23.7864 16.0813 23.7864C12.2865 23.7864 9.14568 21.1928 8.11795 17.6761C7.8688 16.8137 7.79561 16.3234 7.71776 15.8283C7.6399 15.3332 5.19671 0.0430777 5.19671 0.0430777C7.63367 -0.297094 9.89 1.41335 10.2886 3.90315Z" fill="#1971D8"/>
</svg>
