<svg preserveAspectRatio="none" width="100%" height="100%" overflow="visible" style="display: block;" viewBox="0 0 144.417 20.3883" fill="none" xmlns="http://www.w3.org/2000/svg">
<g id="Vector">
<path d="M6.66923 1.29505C6.79766 1.2388 6.99031 1.18255 7.24848 1.12631C7.50534 1.07006 7.7622 1.04194 8.02038 1.04194C8.36897 1.04194 8.68612 1.12229 8.9705 1.28166C9.25488 1.44102 9.4803 1.74637 9.64542 2.19635L16.0106 19.9652H13.5023L11.6558 14.8962H4.21594L2.42446 19.9652H0L6.66923 1.29505ZM11.0228 12.8968L7.9365 3.91457L4.82271 12.8968H11.0228Z" fill="var(--fill-0, white)"/>
<path d="M17.5819 6.58896C17.7103 6.57021 17.8164 6.56084 17.899 6.56084H18.0785C18.6303 6.56084 19.0745 6.70145 19.4153 6.98269C19.7547 7.26393 19.9251 7.76212 19.9251 8.47459V15.0354C19.9251 15.7667 19.9749 16.3492 20.0771 16.7818C20.178 17.2144 20.385 17.5425 20.697 17.7675C20.9722 17.9737 21.271 18.1143 21.592 18.1893C21.9131 18.2643 22.2853 18.3018 22.7086 18.3018C23.204 18.3018 23.6587 18.2308 24.0729 18.0902C24.4857 17.9496 24.8395 17.7755 25.1344 17.5693C25.4279 17.363 25.6573 17.1434 25.8237 16.9077C25.9888 16.6733 26.0714 16.4617 26.0714 16.2742V6.58896C26.1998 6.57021 26.306 6.56084 26.3885 6.56084H26.5681C27.1198 6.56084 27.5641 6.70145 27.9048 6.98269C28.2442 7.26393 28.4146 7.76212 28.4146 8.47459V19.9638H26.0727V18.725C25.7044 19.1576 25.1907 19.5419 24.5289 19.8794C23.8671 20.2169 23.014 20.3856 21.9668 20.3856C20.9197 20.3856 20.0745 20.2169 19.4873 19.8794C18.8989 19.5406 18.4625 19.1094 18.1781 18.5844C17.8938 18.0594 17.7234 17.4822 17.6683 16.8528C17.6133 16.2247 17.5858 15.618 17.5858 15.0368V6.58896H17.5819Z" fill="var(--fill-0, white)"/>
<path d="M40.8105 10.0522C40.4986 9.67725 40.0936 9.32503 39.5982 8.99558C39.1029 8.66747 38.4319 8.50275 37.5866 8.50275C36.8881 8.50275 36.2918 8.62462 35.7951 8.86836C35.2997 9.1121 34.8896 9.45494 34.5685 9.89688C34.2474 10.3375 34.0128 10.8544 33.866 11.445C33.7193 12.0356 33.6459 12.6704 33.6459 13.3454C33.6459 14.0204 33.7193 14.6926 33.866 15.3033C34.0128 15.914 34.2474 16.443 34.5685 16.8943C34.8896 17.3443 35.3076 17.7019 35.8226 17.9644C36.3364 18.2269 36.9523 18.3581 37.6692 18.3581C38.1645 18.3581 38.6101 18.2791 39.0059 18.1184C39.4004 17.959 39.7359 17.7769 40.0111 17.5693C40.378 17.3256 40.6729 17.0631 40.893 16.7805C40.9664 16.8555 41.0542 16.9546 41.1551 17.0765C41.2561 17.1983 41.357 17.3296 41.4579 17.4702C41.5588 17.6108 41.6413 17.7568 41.7056 17.9068C41.7698 18.0568 41.8025 18.1987 41.8025 18.3286C41.8025 18.5911 41.6099 18.8925 41.2233 19.2299C40.8734 19.5487 40.3728 19.8219 39.7214 20.0469C39.0688 20.2719 38.2746 20.3857 37.3376 20.3857C36.7492 20.3857 36.1018 20.3013 35.3954 20.1326C34.6877 19.9638 34.0272 19.6263 33.4113 19.1188C32.7953 18.6126 32.2764 17.9041 31.8544 16.9934C31.4311 16.0828 31.2214 14.8775 31.2214 13.3748C31.2214 11.9861 31.4416 10.841 31.8832 9.93974C32.3249 9.03844 32.8661 8.32999 33.5096 7.81305C34.1517 7.29745 34.8358 6.93586 35.5619 6.72962C36.2879 6.52338 36.9261 6.42025 37.4765 6.42025C38.1383 6.42025 38.7307 6.49123 39.2536 6.63185C39.7765 6.77247 40.2273 6.95059 40.6034 7.16754C40.9795 7.38316 41.2692 7.6135 41.471 7.85724C41.6728 8.10098 41.7737 8.33669 41.7737 8.56168C41.7737 8.78666 41.7003 9.04112 41.5535 9.32235C41.4068 9.60359 41.26 9.84733 41.1119 10.0536H40.8092L40.8105 10.0522Z" fill="var(--fill-0, white)"/>
<path d="M44.0894 2.67579C44.2179 2.65704 44.324 2.64766 44.4066 2.64766H44.5861C45.1379 2.64766 45.5821 2.78828 45.9229 3.06952C46.2623 3.35076 46.4326 3.84895 46.4326 4.56142V6.72962H50.5385V8.75721H46.4326V16.0225C46.4326 17.5613 47.0289 18.3313 48.2241 18.3313C48.5177 18.3313 48.7929 18.2804 49.0511 18.176C49.3079 18.0729 49.5425 17.951 49.7535 17.8104C49.9645 17.6697 50.1349 17.5331 50.2633 17.4019C50.3917 17.2707 50.4743 17.1769 50.511 17.1207C50.7311 17.4019 50.9199 17.6751 51.0758 17.9376C51.2318 18.2014 51.3104 18.4545 51.3104 18.6983C51.3104 18.867 51.2278 19.0505 51.0627 19.2474C50.8976 19.4442 50.6669 19.6277 50.3734 19.7964C50.0798 19.9652 49.7168 20.1058 49.2843 20.2183C48.8532 20.3308 48.3788 20.387 47.865 20.387C46.9097 20.387 46.147 20.1995 45.5782 19.8232C45.0081 19.4482 44.6045 18.9313 44.366 18.2751C44.2375 17.9188 44.1589 17.5291 44.1314 17.1059C44.1039 16.6841 44.0894 16.2662 44.0894 15.8524V2.67579Z" fill="var(--fill-0, white)"/>
<path d="M52.9637 2.39317C52.9637 1.92444 53.1053 1.53874 53.391 1.23876C53.6754 0.938772 54.0292 0.788779 54.4525 0.788779C54.8758 0.788779 55.2283 0.940111 55.5127 1.23876C55.7971 1.53874 55.9399 1.92444 55.9399 2.39317C55.9399 2.82574 55.7971 3.18599 55.5127 3.47794C55.2283 3.76855 54.8745 3.91453 54.4525 3.91453C54.0305 3.91453 53.6767 3.76855 53.391 3.47794C53.1053 3.18733 52.9637 2.82574 52.9637 2.39317ZM53.3765 6.58896C53.505 6.57021 53.6111 6.56084 53.6937 6.56084H53.8732C54.425 6.56084 54.8692 6.70145 55.21 6.98269C55.5494 7.26393 55.7198 7.76212 55.7198 8.47459V17.4286C55.7198 17.9737 55.7984 18.3581 55.9543 18.5831C56.1103 18.808 56.4733 18.9205 57.0434 18.9205V19.9343C56.8783 19.9906 56.6528 20.0374 56.3685 20.0749C56.0828 20.1124 55.8036 20.1312 55.5284 20.1312C54.995 20.1312 54.5862 20.0468 54.3018 19.8781C54.0161 19.7093 53.8051 19.483 53.6675 19.2018C53.5299 18.9205 53.4473 18.6058 53.4198 18.259C53.3923 17.9121 53.3779 17.5693 53.3779 17.2304V6.58896H53.3765Z" fill="var(--fill-0, white)"/>
<path d="M70.9017 13.2918C70.9017 14.2118 70.7916 15.0984 70.5715 15.9528C70.3513 16.8073 69.9975 17.5626 69.5099 18.2201C69.0224 18.8777 68.3934 19.4027 67.6228 19.7964C66.8509 20.1915 65.9139 20.3883 64.8117 20.3883C63.7096 20.3883 62.8001 20.2009 62.0282 19.8245C61.2563 19.4496 60.6325 18.9473 60.1541 18.3179C59.6758 17.6898 59.3272 16.9479 59.107 16.0935C58.8869 15.239 58.7768 14.3337 58.7768 13.3762C58.7768 12.4186 58.9052 11.5454 59.1621 10.7004C59.4189 9.85535 59.8042 9.11877 60.3193 8.48934C60.833 7.86124 61.4725 7.35903 62.2339 6.98271C62.9967 6.60773 63.8917 6.4189 64.9205 6.4189C65.9493 6.4189 66.8994 6.60639 67.6621 6.98271C68.4248 7.35903 69.0447 7.8599 69.5217 8.48934C69.9988 9.11877 70.3487 9.84597 70.5688 10.6723C70.789 11.4986 70.8991 12.3717 70.8991 13.2918H70.9017ZM68.4222 13.3199C68.4222 12.7387 68.3711 12.1615 68.2702 11.5883C68.1693 11.0165 67.9897 10.4995 67.7329 10.0402C67.476 9.58081 67.1169 9.20984 66.6583 8.92727C66.1983 8.64603 65.602 8.50541 64.8668 8.50541C64.1316 8.50541 63.5851 8.64603 63.1172 8.92727C62.6494 9.2085 62.2772 9.57947 62.002 10.0402C61.7268 10.5009 61.5289 11.0165 61.4096 11.5883C61.2904 12.1615 61.2301 12.7387 61.2301 13.3199C61.2301 13.9011 61.2799 14.4891 61.3821 15.0797C61.483 15.6716 61.6717 16.2113 61.9469 16.6988C62.2221 17.1876 62.5891 17.5867 63.0491 17.8961C63.5078 18.2054 64.0962 18.3608 64.813 18.3608C65.5299 18.3608 66.1537 18.2068 66.632 17.8961C67.1091 17.5867 67.4773 17.1916 67.7342 16.7135C67.991 16.2341 68.1706 15.6957 68.2715 15.0944C68.3724 14.4931 68.4235 13.9025 68.4235 13.3199H68.4222Z" fill="var(--fill-0, white)"/>
<path d="M73.7114 6.67333C73.8398 6.65458 73.9407 6.64521 74.0141 6.64521H74.1792C74.6012 6.64521 74.9826 6.75369 75.3233 6.9693C75.6627 7.18492 75.8698 7.55588 75.9432 8.0822C76.3652 7.65097 76.9392 7.26527 77.6652 6.92778C78.3912 6.5903 79.2496 6.42156 80.2417 6.42156C81.4906 6.42156 82.446 6.70279 83.1078 7.26661C83.7696 7.83042 84.2008 8.53351 84.4026 9.37856C84.4943 9.75489 84.5494 10.1714 84.5677 10.6321C84.586 11.0928 84.5952 11.5374 84.5952 11.97V19.9678H82.2533V12.0557C82.2533 11.6994 82.2481 11.3566 82.2402 11.0271C82.231 10.699 82.1799 10.3937 82.0882 10.1125C81.9414 9.62498 81.6701 9.24866 81.2757 8.98617C80.8799 8.72368 80.2875 8.59244 79.4986 8.59244C78.9652 8.59244 78.4882 8.64869 78.0649 8.76118C77.6416 8.87368 77.2838 9.02367 76.9903 9.21116C76.6967 9.39865 76.4674 9.61427 76.3009 9.85801C76.1358 10.1017 76.0533 10.3468 76.0533 10.5906V19.9678H73.7114V6.67333Z" fill="var(--fill-0, white)"/>
<path d="M95.2054 9.82722C94.8935 9.43215 94.4387 9.09065 93.8412 8.7987C93.2436 8.50809 92.6053 8.36211 91.9265 8.36211C91.688 8.36211 91.4259 8.38622 91.1415 8.43309C90.8571 8.47996 90.5898 8.56433 90.3421 8.6862C90.0944 8.80807 89.8873 8.98217 89.7222 9.20716C89.5571 9.43215 89.4745 9.71339 89.4745 10.0522C89.4745 10.3522 89.544 10.6067 89.6816 10.8129C89.8192 11.0191 90.0118 11.1973 90.2608 11.3472C90.5085 11.4986 90.7981 11.6245 91.1284 11.7276C91.4586 11.8307 91.8177 11.9298 92.203 12.0236C92.7547 12.1548 93.2868 12.3195 93.8018 12.5164C94.3156 12.7133 94.7703 12.9664 95.1661 13.2771C95.5606 13.5864 95.8725 13.9775 96.1031 14.4462C96.3325 14.9163 96.4478 15.4975 96.4478 16.1926C96.4478 16.8876 96.3102 17.4929 96.035 18.0085C95.7598 18.5255 95.3915 18.9567 94.9328 19.3036C94.4728 19.6518 93.9355 19.9143 93.3209 20.0924C92.7049 20.2705 92.0667 20.3602 91.4062 20.3602C90.7457 20.3602 90.1848 20.3093 89.6698 20.2062C89.1547 20.1031 88.7236 19.9759 88.375 19.8259C87.915 19.6384 87.5939 19.4455 87.4104 19.2487C87.227 19.0518 87.1352 18.8496 87.1352 18.6433C87.1352 18.3996 87.1994 18.1465 87.3279 17.8827C87.4563 17.6202 87.6214 17.3188 87.8233 16.9814C87.9517 17.0939 88.1312 17.2305 88.3606 17.3898C88.5899 17.5492 88.8651 17.7086 89.1875 17.8679C89.5086 18.0273 89.8624 18.1599 90.249 18.263C90.6343 18.3661 91.0484 18.417 91.4888 18.417C91.819 18.417 92.1401 18.3849 92.4533 18.3179C92.7652 18.2523 93.0457 18.1451 93.2934 17.9938C93.541 17.8438 93.7429 17.6376 93.9001 17.3738C94.0561 17.1113 94.1347 16.7832 94.1347 16.3881C94.1347 15.993 94.0521 15.6703 93.887 15.4171C93.7219 15.164 93.5017 14.9524 93.2252 14.7837C92.95 14.615 92.642 14.4783 92.3026 14.3752C91.9619 14.2721 91.6185 14.1824 91.2686 14.1074C90.7352 13.9949 90.2254 13.8503 89.7392 13.6708C89.2517 13.4927 88.8206 13.253 88.4444 12.953C88.067 12.653 87.7643 12.282 87.5349 11.8401C87.3043 11.3995 87.1903 10.8504 87.1903 10.1928C87.1903 9.57277 87.3187 9.02369 87.5756 8.54559C87.8324 8.06614 88.1823 7.67241 88.6227 7.36305C89.0643 7.05369 89.5636 6.81933 90.1245 6.65862C90.6841 6.49925 91.2686 6.4189 91.8741 6.4189C92.5726 6.4189 93.2108 6.49389 93.7887 6.64389C94.368 6.79388 94.8319 6.972 95.1805 7.17824C95.5474 7.38448 95.7965 7.57733 95.9249 7.75544C96.0533 7.93356 96.1175 8.10766 96.1175 8.2764C96.1175 8.48264 96.0664 8.72236 95.9655 8.99423C95.8646 9.26743 95.7401 9.53393 95.5933 9.79642L95.208 9.82455L95.2054 9.82722Z" fill="var(--fill-0, white)"/>
<path d="M111.629 6.64521C111.629 7.86524 111.427 8.89778 111.022 9.74283C110.619 10.5879 110.072 11.2682 109.383 11.7838C108.693 12.3008 107.895 12.6717 106.986 12.8967C106.076 13.1217 105.116 13.2355 104.107 13.2355H102.784V19.9651H98.9812V1.21063C99.8081 1.11689 100.652 1.04591 101.516 0.999037C102.379 0.952164 103.159 0.928058 103.858 0.928058C106.559 0.928058 108.528 1.41152 109.768 2.37844C111.008 3.34536 111.628 4.76761 111.628 6.64521H111.629ZM107.771 6.84207C107.771 5.69704 107.445 4.88011 106.793 4.39129C106.141 3.90381 105.291 3.65874 104.244 3.65874C103.656 3.65874 103.16 3.68686 102.757 3.74311V10.5008H103.666C105.007 10.5008 106.027 10.233 106.725 9.69864C107.424 9.16295 107.772 8.21076 107.772 6.84073L107.771 6.84207Z" fill="var(--fill-0, white)"/>
<path d="M117.278 20.1339C117.186 20.1714 117.012 20.1995 116.755 20.2183C116.498 20.237 116.212 20.2464 115.9 20.2464C115.588 20.2464 115.29 20.2129 115.005 20.1473C114.719 20.0817 114.468 19.9598 114.248 19.7817C114.028 19.6036 113.852 19.3638 113.723 19.0639C113.595 18.7639 113.531 18.3782 113.531 17.9094V0.112495C113.568 0.0937457 113.714 0.0709789 113.972 0.041516C114.229 0.0133922 114.505 0 114.799 0C115.094 0 115.387 0.0281237 115.681 0.0843711C115.975 0.140619 116.241 0.249096 116.481 0.408463C116.719 0.567831 116.912 0.792821 117.06 1.08477C117.207 1.37672 117.28 1.75572 117.28 2.22445V20.1339H117.278Z" fill="var(--fill-0, white)"/>
<path d="M132.185 19.9651H129.677C129.217 19.9651 128.929 19.8379 128.81 19.5848C128.69 19.3317 128.63 18.9607 128.63 18.4719C128.317 18.9045 127.84 19.3022 127.198 19.6692C126.554 20.0348 125.683 20.2183 124.579 20.2183C123.275 20.2183 122.311 19.9558 121.686 19.4295C121.06 18.9045 120.657 18.2094 120.473 17.3456C120.382 16.9144 120.321 16.4443 120.294 15.9381C120.266 15.4319 120.253 14.9337 120.253 14.4462V6.64521C120.29 6.62647 120.437 6.60236 120.695 6.57424C120.952 6.54611 121.227 6.53272 121.522 6.53272C121.817 6.53272 122.109 6.56084 122.404 6.61709C122.697 6.67334 122.963 6.78182 123.203 6.94118C123.442 7.10055 123.634 7.32554 123.782 7.61749C123.929 7.90944 124.003 8.28844 124.003 8.75851V14.2775C124.003 14.71 124.017 15.0997 124.044 15.4466C124.072 15.7948 124.145 16.0948 124.265 16.3479C124.384 16.601 124.577 16.7979 124.844 16.9385C125.11 17.0791 125.482 17.1501 125.96 17.1501C126.639 17.1501 127.224 17.0041 127.71 16.7135C128.196 16.4229 128.44 16.0613 128.44 15.6287V6.64521C128.477 6.62647 128.623 6.60236 128.882 6.57424C129.138 6.54611 129.414 6.53272 129.709 6.53272C130.003 6.53272 130.296 6.56486 130.59 6.63048C130.884 6.69611 131.151 6.81798 131.39 6.99609C131.628 7.17421 131.821 7.41795 131.969 7.72865C132.116 8.03801 132.189 8.42772 132.189 8.89779V19.9638L132.185 19.9651Z" fill="var(--fill-0, white)"/>
<path d="M144.226 8.1934C144.226 8.47463 144.138 8.8081 143.964 9.1938C143.79 9.57815 143.601 9.93974 143.399 10.2772C143.234 10.146 143.014 9.99599 142.737 9.82725C142.462 9.65851 142.158 9.50316 141.828 9.36254C141.498 9.22192 141.148 9.10541 140.781 9.01032C140.413 8.91658 140.055 8.86971 139.706 8.86971C139.504 8.86971 139.293 8.88444 139.072 8.91256C138.852 8.94068 138.654 8.99693 138.48 9.0813C138.305 9.16567 138.158 9.28754 138.039 9.44691C137.92 9.60628 137.86 9.81788 137.86 10.0804C137.86 10.7192 138.531 11.1879 139.871 11.4879C140.423 11.6004 140.968 11.7464 141.511 11.9245C142.052 12.1026 142.54 12.3517 142.971 12.6704C143.402 12.9892 143.752 13.3936 144.018 13.8811C144.284 14.3699 144.417 14.9792 144.417 15.7118C144.417 16.4444 144.275 17.1287 143.99 17.7113C143.705 18.2938 143.315 18.7813 142.819 19.175C142.323 19.5701 141.739 19.8701 141.069 20.0763C140.398 20.2826 139.668 20.3857 138.878 20.3857C138.088 20.3857 137.363 20.3241 136.811 20.2022C136.259 20.0804 135.801 19.9344 135.434 19.7656C135.177 19.6531 134.897 19.4884 134.594 19.2728C134.291 19.0572 134.139 18.7612 134.139 18.3862C134.139 18.0675 134.231 17.734 134.414 17.3872C134.598 17.0403 134.809 16.6787 135.047 16.3024C135.212 16.4524 135.419 16.6077 135.667 16.7671C135.915 16.9265 136.199 17.0765 136.522 17.2171C136.843 17.3577 137.187 17.4756 137.556 17.5693C137.923 17.6631 138.3 17.7099 138.685 17.7099C138.924 17.7099 139.171 17.6912 139.43 17.6537C139.687 17.6162 139.912 17.5412 140.105 17.4287C140.297 17.3162 140.458 17.1662 140.587 16.9787C140.715 16.7912 140.779 16.5475 140.779 16.2462C140.779 15.7024 140.572 15.3127 140.16 15.077C139.747 14.8426 139.126 14.6404 138.3 14.4717C137.767 14.3592 137.253 14.2092 136.758 14.0204C136.261 13.8329 135.82 13.5838 135.435 13.2744C135.05 12.9651 134.742 12.5753 134.513 12.1053C134.282 11.6365 134.168 11.0634 134.168 10.3884C134.168 9.71342 134.315 9.12148 134.61 8.61391C134.903 8.10769 135.294 7.67512 135.781 7.31888C136.267 6.96265 136.832 6.6948 137.476 6.51669C138.118 6.33857 138.789 6.24884 139.487 6.24884C140.223 6.24884 140.879 6.30509 141.457 6.41758C142.036 6.53008 142.536 6.68007 142.959 6.86756C143.767 7.20639 144.189 7.64699 144.226 8.19072V8.1934Z" fill="var(--fill-0, white)"/>
</g>
</svg>
