<svg width="177" height="24" viewBox="0 0 177 24" fill="none" xmlns="http://www.w3.org/2000/svg">
<g clip-path="url(#clip0_87_15)">
<path d="M37.5863 3.02096C37.7158 2.96421 37.9102 2.90746 38.1707 2.85071C38.4299 2.79395 38.6891 2.76558 38.9495 2.76558C39.3013 2.76558 39.6213 2.84665 39.9082 3.00745C40.1951 3.16825 40.4226 3.47633 40.5892 3.93035L47.0115 21.8587H44.4807L42.6176 16.7443H35.1109L33.3034 21.8587H30.8571L37.5863 3.02096ZM41.9789 14.7268L38.8649 5.66401L35.7232 14.7268H41.9789Z" fill="white"/>
<path d="M48.5969 8.36241C48.7265 8.34349 48.8336 8.33404 48.9169 8.33404H49.098C49.6547 8.33404 50.103 8.47592 50.4468 8.75968C50.7892 9.04344 50.9611 9.54611 50.9611 10.265V16.8847C50.9611 17.6225 51.0114 18.2103 51.1145 18.6468C51.2163 19.0832 51.4252 19.4143 51.7399 19.6413C52.0176 19.8494 52.3191 19.9913 52.6431 20.0669C52.967 20.1426 53.3426 20.1804 53.7697 20.1804C54.2695 20.1804 54.7283 20.1088 55.1462 19.9669C55.5627 19.8251 55.9197 19.6494 56.2172 19.4413C56.5134 19.2332 56.7448 19.0116 56.9127 18.7738C57.0793 18.5373 57.1626 18.3238 57.1626 18.1347V8.36241C57.2922 8.34349 57.3993 8.33404 57.4826 8.33404H57.6638C58.2205 8.33404 58.6687 8.47592 59.0125 8.75968C59.355 9.04344 59.5269 9.54611 59.5269 10.265V21.8573H57.164V20.6074C56.7924 21.0439 56.2741 21.4317 55.6063 21.7722C54.9386 22.1127 54.0778 22.283 53.0212 22.283C51.9647 22.283 51.1119 22.1127 50.5195 21.7722C49.9258 21.4304 49.4854 20.9953 49.1985 20.4656C48.9116 19.9359 48.7397 19.3535 48.6841 18.7184C48.6286 18.0847 48.6008 17.4725 48.6008 16.8861V8.36241H48.5969Z" fill="white"/>
<path d="M72.0341 11.8568C71.7194 11.4784 71.3108 11.1231 70.811 10.7906C70.3111 10.4596 69.6341 10.2934 68.7813 10.2934C68.0765 10.2934 67.4748 10.4164 66.9737 10.6623C66.4739 10.9082 66.06 11.2541 65.736 11.7C65.4121 12.1446 65.1754 12.6662 65.0273 13.2621C64.8792 13.858 64.8051 14.4985 64.8051 15.1795C64.8051 15.8605 64.8792 16.5389 65.0273 17.155C65.1754 17.7712 65.4121 18.305 65.736 18.7603C66.06 19.2143 66.4818 19.5751 67.0015 19.84C67.5198 20.1048 68.1413 20.2372 68.8646 20.2372C69.3644 20.2372 69.814 20.1575 70.2133 19.9954C70.6113 19.8346 70.9498 19.6508 71.2275 19.4414C71.5977 19.1954 71.8952 18.9306 72.1174 18.6455C72.1914 18.7211 72.28 18.8211 72.3818 18.9441C72.4837 19.0671 72.5855 19.1995 72.6873 19.3414C72.7891 19.4832 72.8724 19.6305 72.9372 19.7819C73.002 19.9332 73.0351 20.0764 73.0351 20.2075C73.0351 20.4724 72.8407 20.7764 72.4506 21.1169C72.0976 21.4385 71.5924 21.7142 70.9353 21.9412C70.2768 22.1682 69.4755 22.283 68.53 22.283C67.9363 22.283 67.2831 22.1979 66.5704 22.0276C65.8564 21.8574 65.1899 21.5169 64.5685 21.0047C63.947 20.494 63.4234 19.7792 62.9976 18.8603C62.5705 17.9415 62.3589 16.7253 62.3589 15.2092C62.3589 13.808 62.5811 12.6527 63.0267 11.7433C63.4723 10.8339 64.0184 10.1191 64.6676 9.59749C65.3155 9.07726 66.0058 8.71242 66.7383 8.50433C67.4709 8.29624 68.1148 8.19219 68.6702 8.19219C69.3379 8.19219 69.9356 8.26381 70.4632 8.40569C70.9908 8.54757 71.4457 8.72729 71.8252 8.94619C72.2047 9.16374 72.4969 9.39616 72.7005 9.64208C72.9042 9.88801 73.006 10.1258 73.006 10.3528C73.006 10.5799 72.9319 10.8366 72.7838 11.1204C72.6357 11.4041 72.4876 11.65 72.3382 11.8581H72.0328L72.0341 11.8568Z" fill="white"/>
<path d="M75.3425 4.4141C75.4721 4.39518 75.5792 4.38572 75.6625 4.38572H75.8436C76.4003 4.38572 76.8486 4.52761 77.1924 4.81137C77.5348 5.09513 77.7067 5.5978 77.7067 6.31666V8.50434H81.8495V10.5501H77.7067V17.8807C77.7067 19.4332 78.3084 20.2102 79.5143 20.2102C79.8105 20.2102 80.0882 20.1589 80.3487 20.0535C80.6078 19.9494 80.8445 19.8265 81.0574 19.6846C81.2703 19.5427 81.4422 19.4049 81.5718 19.2724C81.7014 19.14 81.7847 19.0454 81.8217 18.9887C82.0438 19.2724 82.2342 19.5481 82.3916 19.813C82.549 20.0791 82.6283 20.3345 82.6283 20.5805C82.6283 20.7507 82.545 20.9358 82.3784 21.1345C82.2118 21.3331 81.979 21.5182 81.6829 21.6885C81.3867 21.8587 81.0204 22.0006 80.584 22.1141C80.149 22.2276 79.6703 22.2844 79.152 22.2844C78.188 22.2844 77.4185 22.0952 76.8446 21.7155C76.2694 21.3372 75.8621 20.8156 75.6215 20.1535C75.4919 19.794 75.4126 19.4008 75.3848 18.9738C75.357 18.5482 75.3425 18.1266 75.3425 17.7091V4.4141Z" fill="white"/>
<path d="M84.2965 4.12895C84.2965 3.65601 84.4393 3.26685 84.7275 2.96417C85.0145 2.66149 85.3715 2.51015 85.7986 2.51015C86.2257 2.51015 86.5814 2.66284 86.8683 2.96417C87.1553 3.26685 87.2994 3.65601 87.2994 4.12895C87.2994 4.5654 87.1553 4.92888 86.8683 5.22346C86.5814 5.51668 86.2244 5.66396 85.7986 5.66396C85.3728 5.66396 85.0158 5.51668 84.7275 5.22346C84.4393 4.93024 84.2965 4.5654 84.2965 4.12895ZM84.713 8.36241C84.8426 8.34349 84.9497 8.33404 85.033 8.33404H85.2141C85.7708 8.33404 86.2191 8.47592 86.5629 8.75968C86.9053 9.04344 87.0772 9.54611 87.0772 10.265V19.2994C87.0772 19.8494 87.1566 20.2372 87.3139 20.4642C87.4713 20.6912 87.8376 20.8047 88.4128 20.8047V21.8276C88.2461 21.8844 88.0187 21.9317 87.7318 21.9695C87.4435 22.0073 87.1619 22.0263 86.8842 22.0263C86.346 22.0263 85.9335 21.9411 85.6465 21.7709C85.3583 21.6006 85.1454 21.3723 85.0065 21.0885C84.8677 20.8047 84.7844 20.4872 84.7566 20.1372C84.7289 19.7872 84.7143 19.4413 84.7143 19.0994V8.36241H84.713Z" fill="white"/>
<path d="M102.396 15.1254C102.396 16.0537 102.284 16.9483 102.062 17.8104C101.84 18.6725 101.483 19.4346 100.991 20.098C100.499 20.7615 99.8647 21.2912 99.0872 21.6885C98.3083 22.0871 97.3629 22.2857 96.2509 22.2857C95.1388 22.2857 94.2211 22.0965 93.4423 21.7168C92.6635 21.3385 92.0341 20.8318 91.5514 20.1967C91.0688 19.5629 90.7171 18.8144 90.4949 17.9523C90.2728 17.0902 90.1617 16.1767 90.1617 15.2106C90.1617 14.2444 90.2913 13.3634 90.5505 12.5108C90.8096 11.6581 91.1984 10.9149 91.7181 10.2799C92.2364 9.64612 92.8817 9.1394 93.6499 8.7597C94.4195 8.38135 95.3226 8.19082 96.3606 8.19082C97.3986 8.19082 98.3573 8.38 99.1268 8.7597C99.8964 9.1394 100.522 9.64477 101.003 10.2799C101.484 10.9149 101.838 11.6487 102.06 12.4824C102.282 13.3161 102.393 14.1971 102.393 15.1254H102.396ZM99.8938 15.1538C99.8938 14.5674 99.8422 13.985 99.7404 13.4066C99.6386 12.8297 99.4574 12.3081 99.1982 11.8446C98.9391 11.3811 98.5768 11.0068 98.114 10.7217C97.6498 10.438 97.0482 10.2961 96.3064 10.2961C95.5646 10.2961 95.0132 10.438 94.5411 10.7217C94.0691 11.0055 93.6936 11.3798 93.4159 11.8446C93.1382 12.3094 92.9385 12.8297 92.8182 13.4066C92.6979 13.985 92.637 14.5674 92.637 15.1538C92.637 15.7403 92.6873 16.3335 92.7904 16.9294C92.8923 17.5266 93.0827 18.0712 93.3603 18.563C93.638 19.0562 94.0083 19.4589 94.4724 19.771C94.9352 20.0832 95.5289 20.2399 96.2522 20.2399C96.9755 20.2399 97.6049 20.0845 98.0875 19.771C98.5688 19.4589 98.9404 19.0603 99.1996 18.5779C99.4587 18.0941 99.6399 17.5509 99.7417 16.9442C99.8435 16.3375 99.8951 15.7416 99.8951 15.1538H99.8938Z" fill="white"/>
<path d="M105.23 8.44754C105.36 8.42862 105.462 8.41917 105.536 8.41917H105.702C106.128 8.41917 106.513 8.52862 106.857 8.74617C107.199 8.96372 107.408 9.33802 107.482 9.86906C107.908 9.43395 108.487 9.04479 109.22 8.70428C109.952 8.36376 110.818 8.19351 111.819 8.19351C113.079 8.19351 114.043 8.47727 114.711 9.04614C115.379 9.61502 115.814 10.3244 116.018 11.1771C116.11 11.5568 116.166 11.977 116.184 12.4418C116.203 12.9067 116.212 13.3553 116.212 13.7917V21.8614H113.849V13.8782C113.849 13.5188 113.844 13.1729 113.836 12.8405C113.827 12.5094 113.775 12.2013 113.682 11.9176C113.534 11.4257 113.261 11.046 112.863 10.7811C112.463 10.5163 111.866 10.3839 111.07 10.3839C110.531 10.3839 110.05 10.4406 109.623 10.5541C109.196 10.6676 108.835 10.819 108.539 11.0082C108.243 11.1973 108.011 11.4149 107.843 11.6608C107.677 11.9067 107.593 12.154 107.593 12.3999V21.8614H105.23V8.44754Z" fill="white"/>
<path d="M126.917 11.6298C126.603 11.2311 126.144 10.8866 125.541 10.592C124.938 10.2988 124.294 10.1515 123.609 10.1515C123.368 10.1515 123.104 10.1758 122.817 10.2231C122.53 10.2704 122.26 10.3555 122.01 10.4785C121.761 10.6015 121.552 10.7771 121.385 11.0041C121.218 11.2311 121.135 11.5149 121.135 11.8568C121.135 12.1594 121.205 12.4162 121.344 12.6243C121.483 12.8324 121.677 13.0121 121.928 13.1634C122.178 13.3161 122.471 13.4431 122.804 13.5472C123.137 13.6512 123.499 13.7512 123.888 13.8458C124.445 13.9782 124.982 14.1444 125.501 14.3431C126.02 14.5417 126.478 14.7971 126.878 15.1106C127.276 15.4227 127.59 15.8173 127.823 16.2902C128.055 16.7645 128.171 17.3509 128.171 18.0522C128.171 18.7535 128.032 19.3643 127.754 19.8845C127.477 20.4061 127.105 20.8412 126.642 21.1912C126.178 21.5425 125.636 21.8074 125.016 21.9871C124.395 22.1668 123.751 22.2573 123.084 22.2573C122.418 22.2573 121.852 22.206 121.332 22.1019C120.812 21.9979 120.377 21.8695 120.026 21.7182C119.562 21.529 119.238 21.3344 119.052 21.1358C118.867 20.9372 118.775 20.7331 118.775 20.525C118.775 20.2791 118.84 20.0237 118.969 19.7575C119.099 19.4927 119.265 19.1887 119.469 18.8481C119.599 18.9616 119.78 19.0995 120.011 19.2603C120.243 19.4211 120.52 19.5819 120.846 19.7427C121.169 19.9035 121.526 20.0372 121.917 20.1413C122.305 20.2453 122.723 20.2967 123.167 20.2967C123.501 20.2967 123.825 20.2642 124.141 20.1967C124.455 20.1305 124.738 20.0224 124.988 19.8697C125.238 19.7183 125.442 19.5102 125.6 19.2441C125.758 18.9792 125.837 18.6482 125.837 18.2495C125.837 17.8509 125.754 17.5253 125.587 17.2699C125.421 17.0145 125.198 16.801 124.919 16.6307C124.642 16.4605 124.331 16.3226 123.989 16.2186C123.645 16.1146 123.298 16.024 122.945 15.9484C122.407 15.8348 121.893 15.6889 121.402 15.5078C120.91 15.3281 120.475 15.0863 120.096 14.7836C119.715 14.4809 119.41 14.1066 119.178 13.6607C118.945 13.2161 118.83 12.6621 118.83 11.9986C118.83 11.373 118.96 10.819 119.219 10.3366C119.478 9.85286 119.831 9.45559 120.276 9.14345C120.721 8.83132 121.225 8.59485 121.791 8.4327C122.356 8.2719 122.945 8.19082 123.556 8.19082C124.261 8.19082 124.905 8.26649 125.488 8.41783C126.073 8.56917 126.541 8.74889 126.892 8.95698C127.263 9.16507 127.514 9.35965 127.643 9.53937C127.773 9.71909 127.838 9.89475 127.838 10.065C127.838 10.2731 127.786 10.515 127.684 10.7893C127.583 11.0649 127.457 11.3338 127.309 11.5987L126.92 11.6271L126.917 11.6298Z" fill="white"/>
<path d="M143.489 8.41916C143.489 9.65015 143.285 10.692 142.876 11.5446C142.469 12.3972 141.918 13.0837 141.222 13.6039C140.527 14.1255 139.721 14.4998 138.804 14.7268C137.886 14.9538 136.917 15.0687 135.899 15.0687H134.564V21.8587H130.727V2.93579C131.561 2.8412 132.413 2.76959 133.284 2.72229C134.156 2.675 134.943 2.65068 135.647 2.65068C138.373 2.65068 140.36 3.13848 141.611 4.11408C142.862 5.08968 143.487 6.52471 143.487 8.41916H143.489ZM139.596 8.6178C139.596 7.46248 139.266 6.63822 138.609 6.14501C137.951 5.65316 137.094 5.40588 136.037 5.40588C135.444 5.40588 134.944 5.43425 134.537 5.491V12.3094H135.454C136.807 12.3094 137.836 12.0392 138.541 11.5C139.245 10.9595 139.597 9.99878 139.597 8.61645L139.596 8.6178Z" fill="white"/>
<path d="M149.188 22.029C149.095 22.0668 148.919 22.0952 148.66 22.1141C148.401 22.133 148.113 22.1425 147.798 22.1425C147.483 22.1425 147.182 22.1087 146.895 22.0425C146.607 21.9763 146.353 21.8533 146.131 21.6736C145.909 21.4939 145.731 21.252 145.602 20.9493C145.472 20.6467 145.407 20.2575 145.407 19.7846V1.82779C145.444 1.80887 145.593 1.7859 145.853 1.75617C146.112 1.7278 146.39 1.71428 146.687 1.71428C146.985 1.71428 147.28 1.74266 147.577 1.79941C147.873 1.85617 148.142 1.96562 148.384 2.12642C148.625 2.28722 148.819 2.51423 148.968 2.8088C149.116 3.10337 149.19 3.48577 149.19 3.95871V22.029H149.188Z" fill="white"/>
<path d="M164.23 21.8587H161.699C161.235 21.8587 160.944 21.7303 160.823 21.475C160.703 21.2196 160.642 20.8453 160.642 20.3521C160.326 20.7885 159.845 21.1898 159.197 21.5601C158.548 21.929 157.668 22.1141 156.555 22.1141C155.239 22.1141 154.266 21.8493 153.635 21.3182C153.005 20.7885 152.597 20.0872 152.412 19.2157C152.32 18.7806 152.259 18.3063 152.231 17.7955C152.203 17.2847 152.19 16.7821 152.19 16.2902V8.41917C152.227 8.40026 152.375 8.37593 152.636 8.34756C152.895 8.31918 153.173 8.30567 153.47 8.30567C153.768 8.30567 154.062 8.33404 154.36 8.3908C154.656 8.44755 154.925 8.557 155.167 8.7178C155.407 8.8786 155.602 9.10561 155.751 9.40018C155.899 9.69475 155.973 10.0772 155.973 10.5514V16.1199C155.973 16.5564 155.988 16.9496 156.015 17.2996C156.043 17.6509 156.117 17.9536 156.238 18.209C156.358 18.4644 156.552 18.663 156.822 18.8049C157.09 18.9468 157.466 19.0184 157.949 19.0184C158.634 19.0184 159.223 18.8711 159.714 18.5779C160.204 18.2847 160.45 17.9198 160.45 17.4834V8.41917C160.487 8.40026 160.636 8.37593 160.896 8.34756C161.155 8.31918 161.433 8.30567 161.73 8.30567C162.028 8.30567 162.323 8.3381 162.62 8.40431C162.916 8.47052 163.186 8.59348 163.427 8.7732C163.668 8.95292 163.862 9.19884 164.011 9.51233C164.159 9.82447 164.233 10.2177 164.233 10.692V21.8574L164.23 21.8587Z" fill="white"/>
<path d="M176.378 9.98126C176.378 10.265 176.29 10.6015 176.114 10.9906C175.938 11.3784 175.748 11.7433 175.544 12.0838C175.377 11.9514 175.155 11.8 174.876 11.6298C174.599 11.4595 174.292 11.3028 173.959 11.1609C173.625 11.019 173.272 10.9015 172.902 10.8055C172.531 10.7109 172.17 10.6636 171.818 10.6636C171.614 10.6636 171.401 10.6785 171.178 10.7069C170.956 10.7353 170.756 10.792 170.58 10.8771C170.404 10.9623 170.256 11.0852 170.136 11.246C170.016 11.4068 169.955 11.6203 169.955 11.8852C169.955 12.5297 170.632 13.0027 171.984 13.3053C172.541 13.4188 173.091 13.5661 173.639 13.7458C174.185 13.9256 174.677 14.1769 175.112 14.4985C175.547 14.8201 175.9 15.2282 176.168 15.72C176.437 16.2132 176.571 16.828 176.571 17.5672C176.571 18.3063 176.427 18.9968 176.14 19.5846C175.852 20.1724 175.459 20.6642 174.958 21.0615C174.458 21.4601 173.869 21.7628 173.193 21.9709C172.516 22.179 171.779 22.283 170.982 22.283C170.185 22.283 169.454 22.2209 168.897 22.0979C168.34 21.975 167.877 21.8277 167.507 21.6574C167.248 21.5439 166.965 21.3777 166.66 21.1602C166.354 20.9426 166.201 20.644 166.201 20.2656C166.201 19.944 166.293 19.6076 166.478 19.2576C166.664 18.9076 166.876 18.5428 167.117 18.1631C167.284 18.3144 167.493 18.4712 167.743 18.632C167.992 18.7928 168.279 18.9441 168.605 19.086C168.929 19.2279 169.276 19.3468 169.648 19.4414C170.018 19.5359 170.399 19.5832 170.788 19.5832C171.028 19.5832 171.278 19.5643 171.539 19.5265C171.798 19.4887 172.025 19.413 172.22 19.2995C172.414 19.186 172.577 19.0346 172.706 18.8455C172.836 18.6563 172.901 18.4104 172.901 18.1063C172.901 17.5577 172.692 17.1645 172.275 16.9267C171.859 16.6902 171.232 16.4862 170.399 16.3159C169.861 16.2024 169.342 16.0511 168.843 15.8605C168.342 15.6714 167.897 15.42 167.508 15.1079C167.12 14.7958 166.809 14.4025 166.578 13.9283C166.345 13.4553 166.23 12.877 166.23 12.196C166.23 11.5149 166.378 10.9177 166.675 10.4055C166.972 9.89478 167.366 9.45832 167.858 9.09889C168.348 8.73946 168.918 8.46921 169.567 8.28949C170.215 8.10977 170.892 8.01924 171.597 8.01924C172.339 8.01924 173.001 8.07599 173.584 8.1895C174.169 8.303 174.673 8.45434 175.1 8.64352C175.916 8.98538 176.341 9.42995 176.378 9.97855V9.98126Z" fill="white"/>
<path d="M0 7.75233L4.66002 6.83706L5.36547 11.2587L4.92083 11.3344C2.59868 11.7308 0.400642 10.1307 0 7.75233Z" fill="#008CD1"/>
<path d="M20.8081 11.834C20.8505 10.5997 20.1686 9.89871 17.097 9.79397V5.12416C18.3979 5.17895 20.0696 5.37715 21.7979 5.63336L22.0681 3.93979C22.4688 1.42924 24.747 -0.298166 27.2058 0.04506L26.1971 6.36816C28.8257 6.84835 30.8571 7.28343 30.8571 7.28343C30.4565 9.66184 28.2585 11.2619 25.9379 10.8655L25.4932 10.7898L24.7281 15.5789L20.3132 14.6346C20.3902 14.1657 20.7547 12.5962 20.8097 11.834H20.8081Z" fill="#4AC7EB"/>
<path d="M10.381 3.93819L10.6607 5.68977C12.3968 5.42551 14.1015 5.2128 15.4558 5.13707V9.79237C10.6685 9.96318 11.6945 11.8034 12.1391 14.6427C12.5539 17.295 13.9679 19.5074 16.2257 19.5074C17.9995 19.5074 19.2391 18.1394 19.9006 16.2686L24.4789 17.2467C24.4601 17.3321 24.4412 17.4191 24.4208 17.5029L24.3344 17.8155C23.288 21.3928 20.0546 24 16.2257 24C12.3968 24 9.2278 21.3831 8.19084 17.8348C7.93946 16.9647 7.86562 16.47 7.78706 15.9704C7.7085 15.4709 5.24337 0.0434645 5.24337 0.0434645C7.70222 -0.299762 9.97881 1.42604 10.381 3.93819Z" fill="#008CD1"/>
</g>
<defs>
<clipPath id="clip0_87_15">
<rect width="176.571" height="24" fill="white"/>
</clipPath>
</defs>
</svg>
